<svg width="28" height="28" viewBox="0 0 28 28" fill="none" xmlns="http://www.w3.org/2000/svg">
<circle cx="14" cy="14" r="14" fill="#FFB086"/>
<path d="M7.61739 18.2897C7.65189 17.3726 7.88359 16.4381 8.27505 15.6312C10.416 11.2193 15.8328 10.6786 19.0373 14.0576C19.861 14.9266 20.5372 16.048 20.8014 17.3194C21.0641 18.5919 20.8703 20.0187 20.1583 20.97C19.4464 21.9214 18.1904 22.2785 17.2274 21.6601C16.8279 21.4036 16.429 21.0193 16.1613 20.6313C15.876 20.2147 15.586 19.7828 15.0698 19.6342C14.8482 19.5715 14.6106 19.5709 14.3825 19.61C13.6525 19.7302 13.0999 20.1627 12.8394 20.8339C12.6229 21.393 12.3987 22.0217 11.8475 22.3397C11.4709 22.5564 11.0345 22.5957 10.6145 22.5395C8.41162 22.2467 7.53893 20.3109 7.61739 18.2897Z" fill="#FEFBF3"/>
<path d="M9.36655 7.3836C7.73693 8.19808 7.67828 10.7491 9.58622 11.3008C10.3948 11.5349 11.3228 11.2195 11.8135 10.5451C12.3042 9.87068 12.3211 8.88175 11.8567 8.17407C11.3483 7.39872 10.2136 6.95906 9.36545 7.38219L9.36655 7.3836Z" fill="#FEFBF3"/>
<path d="M15.1727 6.7586C13.3673 7.71061 13.1493 10.3863 15.1717 10.8484C16.0288 11.0446 17.0478 10.6579 17.6175 9.92173C18.1872 9.18552 18.2654 8.14863 17.8079 7.43553C17.3071 6.65422 16.1111 6.26253 15.1715 6.75719L15.1727 6.7586Z" fill="#FEFBF3"/>
<path d="M20.4373 9.89916C18.9509 10.4043 18.7288 12.4917 19.9755 13.418C20.9024 14.1069 22.3903 13.8239 22.9964 12.8454C24.0902 11.0795 22.2367 9.28598 20.4373 9.89916Z" fill="#FEFBF3"/>
<path d="M5.2408 11.3418C3.75437 11.847 3.53231 13.9344 4.77893 14.8606C5.70584 15.5495 7.19373 15.2665 7.79987 14.288C8.89362 12.5222 7.04015 10.7286 5.2408 11.3418Z" fill="#FEFBF3"/>
</svg>
