<svg width="28" height="28" viewBox="0 0 28 28" fill="none" xmlns="http://www.w3.org/2000/svg">
<circle cx="14" cy="14" r="14" fill="#8CB5DB"/>
<path d="M5.22192 14.0703C4.35239 14.3922 3.79771 15.279 3.73502 16.4193C3.64174 17.6352 4.42909 18.4296 5.17071 18.6186C6.48791 19.2031 7.50376 18.174 8.53549 17.347C9.3356 16.6458 10.3194 16.3378 11.3533 16.2692C12.6906 16.1817 14.0273 16.1557 15.374 16.1321C15.964 16.1219 16.5587 16.1437 17.143 16.1194C18.2426 16.0737 19.4002 16.088 20.4552 16.5987C21.5581 17.1305 22.2936 18.5519 23.5878 18.2702C25.4684 17.8602 25.4679 15.066 23.784 14.2368" fill="#FEFBF3"/>
<path d="M23.2451 14.4635C23.764 14.2639 24.2308 13.8446 24.4476 13.4304C25.0707 12.0046 24.4224 10.5997 23.2717 9.81027C21.9405 9.02474 20.9531 10.4575 19.9214 11.2845C19.3497 11.7433 18.5895 12.1838 17.8576 12.197C17.3943 12.2051 16.9295 12.2135 16.4662 12.2216C15.1423 12.2438 13.8175 12.268 12.4937 12.2902C11.6413 12.3055 10.7884 12.3192 9.93601 12.3345C9.576 12.3402 9.25692 12.3638 8.89658 12.2785C8.04974 12.08 7.38239 11.594 6.70186 11.0049C6.11074 10.493 5.48376 10.0705 4.73871 10.2611C2.86132 10.7403 2.96411 13.5973 4.73441 14.3346" fill="#FEFBF3"/>
</svg>
