<svg width="110" height="60" viewBox="0 0 110 60" fill="none" xmlns="http://www.w3.org/2000/svg">
<path d="M22 9H36V18H22V9Z" fill="#FEFBF3"/>
<path d="M56.2 35.992C56.52 35.992 56.816 36.0347 57.088 36.12C57.3653 36.2 57.6027 36.3253 57.8 36.496C57.9973 36.6667 58.152 36.8827 58.264 37.144C58.376 37.4 58.432 37.7067 58.432 38.064C58.432 38.4053 58.384 38.704 58.288 38.96C58.192 39.216 58.056 39.432 57.88 39.608C57.704 39.7787 57.4907 39.9067 57.24 39.992C56.9947 40.0773 56.72 40.12 56.416 40.12C56.1867 40.12 55.9733 40.0853 55.776 40.016V41.344C55.7227 41.36 55.6373 41.376 55.52 41.392C55.4027 41.4133 55.2827 41.424 55.16 41.424C55.0427 41.424 54.936 41.416 54.84 41.4C54.7493 41.384 54.672 41.352 54.608 41.304C54.544 41.256 54.496 41.1893 54.464 41.104C54.432 41.024 54.416 40.9173 54.416 40.784V36.944C54.416 36.8 54.4453 36.6827 54.504 36.592C54.568 36.5013 54.6533 36.4187 54.76 36.344C54.9253 36.2373 55.1307 36.152 55.376 36.088C55.6213 36.024 55.896 35.992 56.2 35.992ZM56.216 39.048C56.7653 39.048 57.04 38.72 57.04 38.064C57.04 37.7227 56.9707 37.4693 56.832 37.304C56.6987 37.1387 56.504 37.056 56.248 37.056C56.1467 37.056 56.056 37.0693 55.976 37.096C55.896 37.1173 55.8267 37.144 55.768 37.176V38.936C55.832 38.968 55.9013 38.9947 55.976 39.016C56.0507 39.0373 56.1307 39.048 56.216 39.048ZM60.8557 39.992C60.8024 40.008 60.717 40.024 60.5997 40.04C60.4877 40.056 60.3704 40.064 60.2477 40.064C60.1304 40.064 60.0237 40.056 59.9277 40.04C59.837 40.024 59.7597 39.992 59.6957 39.944C59.6317 39.896 59.581 39.832 59.5437 39.752C59.5117 39.6667 59.4957 39.5573 59.4957 39.424V37.024C59.4957 36.9013 59.517 36.7973 59.5597 36.712C59.6077 36.6213 59.6744 36.5413 59.7597 36.472C59.845 36.4027 59.949 36.3413 60.0717 36.288C60.1997 36.2293 60.3357 36.1787 60.4797 36.136C60.6237 36.0933 60.773 36.0613 60.9277 36.04C61.0824 36.0133 61.237 36 61.3917 36C61.6477 36 61.8504 36.0507 61.9997 36.152C62.149 36.248 62.2237 36.408 62.2237 36.632C62.2237 36.7067 62.213 36.7813 62.1917 36.856C62.1704 36.9253 62.1437 36.9893 62.1117 37.048C61.9997 37.048 61.885 37.0533 61.7677 37.064C61.6504 37.0747 61.5357 37.0907 61.4237 37.112C61.3117 37.1333 61.205 37.1573 61.1037 37.184C61.0077 37.2053 60.925 37.232 60.8557 37.264V39.992ZM65.0923 40.128C64.7776 40.128 64.4843 40.0853 64.2123 40C63.9456 39.9093 63.711 39.776 63.5083 39.6C63.311 39.424 63.1536 39.2027 63.0363 38.936C62.9243 38.6693 62.8683 38.3573 62.8683 38C62.8683 37.648 62.9243 37.3467 63.0363 37.096C63.1536 36.84 63.3056 36.632 63.4923 36.472C63.679 36.3067 63.8923 36.1867 64.1323 36.112C64.3723 36.032 64.6176 35.992 64.8683 35.992C65.151 35.992 65.407 36.0347 65.6363 36.12C65.871 36.2053 66.071 36.3227 66.2363 36.472C66.407 36.6213 66.5376 36.8 66.6283 37.008C66.7243 37.216 66.7723 37.4427 66.7723 37.688C66.7723 37.8693 66.7216 38.008 66.6203 38.104C66.519 38.2 66.3776 38.2613 66.1963 38.288L64.2203 38.584C64.279 38.76 64.399 38.8933 64.5803 38.984C64.7616 39.0693 64.9696 39.112 65.2043 39.112C65.423 39.112 65.6283 39.0853 65.8203 39.032C66.0176 38.9733 66.1776 38.9067 66.3003 38.832C66.3856 38.8853 66.4576 38.96 66.5163 39.056C66.575 39.152 66.6043 39.2533 66.6043 39.36C66.6043 39.6 66.4923 39.7787 66.2683 39.896C66.0976 39.9867 65.9056 40.048 65.6923 40.08C65.479 40.112 65.279 40.128 65.0923 40.128ZM64.8683 36.984C64.7403 36.984 64.6283 37.0053 64.5323 37.048C64.4416 37.0907 64.367 37.1467 64.3083 37.216C64.2496 37.28 64.2043 37.3547 64.1723 37.44C64.1456 37.52 64.1296 37.6027 64.1243 37.688L65.4923 37.464C65.4763 37.3573 65.4176 37.2507 65.3163 37.144C65.215 37.0373 65.0656 36.984 64.8683 36.984ZM71.1069 38.84C71.1069 39.2453 70.9549 39.5627 70.6509 39.792C70.3469 40.0213 69.8989 40.136 69.3069 40.136C69.0829 40.136 68.8749 40.12 68.6829 40.088C68.4909 40.056 68.3256 40.008 68.1869 39.944C68.0536 39.8747 67.9469 39.7893 67.8669 39.688C67.7923 39.5867 67.7549 39.4667 67.7549 39.328C67.7549 39.2 67.7816 39.0933 67.8349 39.008C67.8883 38.9173 67.9523 38.8427 68.0269 38.784C68.1816 38.8693 68.3576 38.9467 68.5549 39.016C68.7576 39.08 68.9896 39.112 69.2509 39.112C69.4163 39.112 69.5416 39.088 69.6269 39.04C69.7176 38.992 69.7629 38.928 69.7629 38.848C69.7629 38.7733 69.7309 38.7147 69.6669 38.672C69.6029 38.6293 69.4963 38.5947 69.3469 38.568L69.1069 38.52C68.6429 38.4293 68.2963 38.288 68.0669 38.096C67.8429 37.8987 67.7309 37.6187 67.7309 37.256C67.7309 37.0587 67.7736 36.88 67.8589 36.72C67.9443 36.56 68.0643 36.4267 68.2189 36.32C68.3736 36.2133 68.5576 36.1307 68.7709 36.072C68.9896 36.0133 69.2296 35.984 69.4909 35.984C69.6883 35.984 69.8723 36 70.0429 36.032C70.2189 36.0587 70.3709 36.1013 70.4989 36.16C70.6269 36.2187 70.7283 36.296 70.8029 36.392C70.8776 36.4827 70.9149 36.592 70.9149 36.72C70.9149 36.8427 70.8909 36.9493 70.8429 37.04C70.8003 37.1253 70.7443 37.1973 70.6749 37.256C70.6323 37.2293 70.5683 37.2027 70.4829 37.176C70.3976 37.144 70.3043 37.1173 70.2029 37.096C70.1016 37.0693 69.9976 37.048 69.8909 37.032C69.7896 37.016 69.6963 37.008 69.6109 37.008C69.4349 37.008 69.2989 37.0293 69.2029 37.072C69.1069 37.1093 69.0589 37.1707 69.0589 37.256C69.0589 37.3147 69.0856 37.3627 69.1389 37.4C69.1923 37.4373 69.2936 37.472 69.4429 37.504L69.6909 37.56C70.2029 37.6773 70.5656 37.84 70.7789 38.048C70.9976 38.2507 71.1069 38.5147 71.1069 38.84ZM72.1324 35.032C72.1324 34.8293 72.1991 34.6587 72.3324 34.52C72.4711 34.3813 72.6524 34.312 72.8764 34.312C73.1004 34.312 73.2791 34.3813 73.4124 34.52C73.5511 34.6587 73.6204 34.8293 73.6204 35.032C73.6204 35.2347 73.5511 35.4053 73.4124 35.544C73.2791 35.6827 73.1004 35.752 72.8764 35.752C72.6524 35.752 72.4711 35.6827 72.3324 35.544C72.1991 35.4053 72.1324 35.2347 72.1324 35.032ZM73.5564 39.992C73.4978 40.0027 73.4098 40.016 73.2924 40.032C73.1804 40.0533 73.0658 40.064 72.9484 40.064C72.8311 40.064 72.7244 40.056 72.6284 40.04C72.5378 40.024 72.4604 39.992 72.3964 39.944C72.3324 39.896 72.2818 39.832 72.2444 39.752C72.2124 39.6667 72.1964 39.5573 72.1964 39.424V36.168C72.2551 36.1573 72.3404 36.144 72.4524 36.128C72.5698 36.1067 72.6871 36.096 72.8044 36.096C72.9218 36.096 73.0258 36.104 73.1164 36.12C73.2124 36.136 73.2924 36.168 73.3564 36.216C73.4204 36.264 73.4684 36.3307 73.5004 36.416C73.5378 36.496 73.5564 36.6027 73.5564 36.736V39.992ZM74.6543 38.056C74.6543 37.704 74.7076 37.4 74.8143 37.144C74.9209 36.8827 75.0676 36.6667 75.2543 36.496C75.4463 36.3253 75.6676 36.2 75.9183 36.12C76.1743 36.0347 76.4489 35.992 76.7423 35.992C76.8489 35.992 76.9529 36.0027 77.0543 36.024C77.1556 36.04 77.2383 36.0613 77.3023 36.088V34.792C77.3556 34.776 77.4409 34.76 77.5583 34.744C77.6756 34.7227 77.7956 34.712 77.9183 34.712C78.0356 34.712 78.1396 34.72 78.2303 34.736C78.3263 34.752 78.4063 34.784 78.4703 34.832C78.5343 34.88 78.5823 34.9467 78.6143 35.032C78.6463 35.112 78.6623 35.2187 78.6623 35.352V39.144C78.6623 39.3947 78.5449 39.5947 78.3103 39.744C78.1556 39.8453 77.9556 39.9333 77.7103 40.008C77.4649 40.088 77.1823 40.128 76.8623 40.128C76.5156 40.128 76.2036 40.08 75.9263 39.984C75.6543 39.888 75.4223 39.7493 75.2303 39.568C75.0436 39.3867 74.8996 39.1707 74.7983 38.92C74.7023 38.664 74.6543 38.376 74.6543 38.056ZM76.9263 37.056C76.6383 37.056 76.4169 37.1387 76.2623 37.304C76.1076 37.4693 76.0303 37.72 76.0303 38.056C76.0303 38.3867 76.1023 38.6373 76.2463 38.808C76.3903 38.9733 76.5983 39.056 76.8703 39.056C76.9663 39.056 77.0516 39.0427 77.1263 39.016C77.2063 38.984 77.2676 38.9493 77.3103 38.912V37.152C77.2036 37.088 77.0756 37.056 76.9263 37.056ZM81.9657 40.128C81.6511 40.128 81.3577 40.0853 81.0857 40C80.8191 39.9093 80.5844 39.776 80.3817 39.6C80.1844 39.424 80.0271 39.2027 79.9097 38.936C79.7977 38.6693 79.7417 38.3573 79.7417 38C79.7417 37.648 79.7977 37.3467 79.9097 37.096C80.0271 36.84 80.1791 36.632 80.3657 36.472C80.5524 36.3067 80.7657 36.1867 81.0057 36.112C81.2457 36.032 81.4911 35.992 81.7417 35.992C82.0244 35.992 82.2804 36.0347 82.5097 36.12C82.7444 36.2053 82.9444 36.3227 83.1097 36.472C83.2804 36.6213 83.4111 36.8 83.5017 37.008C83.5978 37.216 83.6458 37.4427 83.6458 37.688C83.6458 37.8693 83.5951 38.008 83.4937 38.104C83.3924 38.2 83.2511 38.2613 83.0697 38.288L81.0937 38.584C81.1524 38.76 81.2724 38.8933 81.4537 38.984C81.6351 39.0693 81.8431 39.112 82.0777 39.112C82.2964 39.112 82.5017 39.0853 82.6937 39.032C82.8911 38.9733 83.0511 38.9067 83.1737 38.832C83.2591 38.8853 83.3311 38.96 83.3897 39.056C83.4484 39.152 83.4777 39.2533 83.4777 39.36C83.4777 39.6 83.3657 39.7787 83.1417 39.896C82.9711 39.9867 82.7791 40.048 82.5657 40.08C82.3524 40.112 82.1524 40.128 81.9657 40.128ZM81.7417 36.984C81.6137 36.984 81.5017 37.0053 81.4057 37.048C81.3151 37.0907 81.2404 37.1467 81.1817 37.216C81.1231 37.28 81.0777 37.3547 81.0457 37.44C81.0191 37.52 81.0031 37.6027 80.9977 37.688L82.3657 37.464C82.3497 37.3573 82.2911 37.2507 82.1897 37.144C82.0884 37.0373 81.9391 36.984 81.7417 36.984ZM87.1644 37.536C87.1644 37.3707 87.1164 37.2507 87.0204 37.176C86.9297 37.096 86.8044 37.056 86.6444 37.056C86.5377 37.056 86.431 37.0693 86.3244 37.096C86.223 37.1227 86.135 37.1627 86.0604 37.216V39.992C86.007 40.008 85.9217 40.024 85.8044 40.04C85.6924 40.056 85.575 40.064 85.4524 40.064C85.335 40.064 85.2284 40.056 85.1324 40.04C85.0417 40.024 84.9644 39.992 84.9004 39.944C84.8364 39.896 84.7857 39.832 84.7484 39.752C84.7164 39.6667 84.7004 39.5573 84.7004 39.424V37.024C84.7004 36.88 84.7297 36.7627 84.7884 36.672C84.8524 36.5813 84.9377 36.4987 85.0444 36.424C85.2257 36.296 85.4524 36.192 85.7244 36.112C86.0017 36.032 86.3084 35.992 86.6444 35.992C87.247 35.992 87.711 36.1253 88.0364 36.392C88.3617 36.6533 88.5244 37.0187 88.5244 37.488V39.992C88.471 40.008 88.3857 40.024 88.2684 40.04C88.1564 40.056 88.039 40.064 87.9164 40.064C87.799 40.064 87.6924 40.056 87.5964 40.04C87.5057 40.024 87.4284 39.992 87.3644 39.944C87.3004 39.896 87.2497 39.832 87.2124 39.752C87.1804 39.6667 87.1644 39.5573 87.1644 39.424V37.536ZM91.1244 38.664C91.1244 38.8027 91.1671 38.9013 91.2524 38.96C91.3431 39.0187 91.4684 39.048 91.6284 39.048C91.7084 39.048 91.7911 39.0427 91.8764 39.032C91.9618 39.016 92.0364 38.9973 92.1004 38.976C92.1484 39.0347 92.1884 39.1013 92.2204 39.176C92.2578 39.2453 92.2764 39.3307 92.2764 39.432C92.2764 39.6347 92.1991 39.8 92.0444 39.928C91.8951 40.056 91.6284 40.12 91.2444 40.12C90.7751 40.12 90.4124 40.0133 90.1564 39.8C89.9058 39.5867 89.7804 39.24 89.7804 38.76V35.336C89.8391 35.32 89.9218 35.304 90.0284 35.288C90.1404 35.2667 90.2578 35.256 90.3804 35.256C90.6151 35.256 90.7964 35.2987 90.9244 35.384C91.0578 35.464 91.1244 35.6373 91.1244 35.904V36.416H92.1724C92.2044 36.4747 92.2338 36.5493 92.2604 36.64C92.2924 36.7253 92.3084 36.8213 92.3084 36.928C92.3084 37.1147 92.2658 37.2507 92.1804 37.336C92.1004 37.416 91.9911 37.456 91.8524 37.456H91.1244V38.664ZM93.3356 35.032C93.3356 34.8293 93.4022 34.6587 93.5356 34.52C93.6742 34.3813 93.8556 34.312 94.0796 34.312C94.3036 34.312 94.4822 34.3813 94.6156 34.52C94.7542 34.6587 94.8236 34.8293 94.8236 35.032C94.8236 35.2347 94.7542 35.4053 94.6156 35.544C94.4822 35.6827 94.3036 35.752 94.0796 35.752C93.8556 35.752 93.6742 35.6827 93.5356 35.544C93.4022 35.4053 93.3356 35.2347 93.3356 35.032ZM94.7596 39.992C94.7009 40.0027 94.6129 40.016 94.4956 40.032C94.3836 40.0533 94.2689 40.064 94.1516 40.064C94.0342 40.064 93.9276 40.056 93.8316 40.04C93.7409 40.024 93.6636 39.992 93.5996 39.944C93.5356 39.896 93.4849 39.832 93.4476 39.752C93.4156 39.6667 93.3996 39.5573 93.3996 39.424V36.168C93.4582 36.1573 93.5436 36.144 93.6556 36.128C93.7729 36.1067 93.8902 36.096 94.0076 36.096C94.1249 36.096 94.2289 36.104 94.3196 36.12C94.4156 36.136 94.4956 36.168 94.5596 36.216C94.6236 36.264 94.6716 36.3307 94.7036 36.416C94.7409 36.496 94.7596 36.6027 94.7596 36.736V39.992ZM97.6894 39.136C97.78 39.136 97.8787 39.128 97.9854 39.112C98.0974 39.0907 98.18 39.064 98.2334 39.032V38.392L97.6574 38.44C97.508 38.4507 97.3854 38.4827 97.2894 38.536C97.1934 38.5893 97.1454 38.6693 97.1454 38.776C97.1454 38.8827 97.1854 38.9707 97.2654 39.04C97.3507 39.104 97.492 39.136 97.6894 39.136ZM97.6254 35.992C97.9134 35.992 98.1747 36.0213 98.4094 36.08C98.6494 36.1387 98.852 36.2293 99.0174 36.352C99.188 36.4693 99.3187 36.6213 99.4094 36.808C99.5 36.9893 99.5454 37.2053 99.5454 37.456V39.248C99.5454 39.3867 99.5054 39.5013 99.4254 39.592C99.3507 39.6773 99.26 39.752 99.1534 39.816C98.8067 40.024 98.3187 40.128 97.6894 40.128C97.4067 40.128 97.1507 40.1013 96.9214 40.048C96.6974 39.9947 96.5027 39.9147 96.3374 39.808C96.1774 39.7013 96.052 39.5653 95.9614 39.4C95.876 39.2347 95.8334 39.0427 95.8334 38.824C95.8334 38.456 95.9427 38.1733 96.1614 37.976C96.38 37.7787 96.7187 37.656 97.1774 37.608L98.2254 37.496V37.44C98.2254 37.2853 98.156 37.176 98.0174 37.112C97.884 37.0427 97.6894 37.008 97.4334 37.008C97.2307 37.008 97.0334 37.0293 96.8414 37.072C96.6494 37.1147 96.476 37.168 96.3214 37.232C96.252 37.184 96.1934 37.112 96.1454 37.016C96.0974 36.9147 96.0734 36.8107 96.0734 36.704C96.0734 36.5653 96.1054 36.456 96.1694 36.376C96.2387 36.2907 96.3427 36.2187 96.4814 36.16C96.636 36.1013 96.8174 36.0587 97.0254 36.032C97.2387 36.0053 97.4387 35.992 97.6254 35.992ZM102.161 39.992C102.102 40.0027 102.014 40.016 101.897 40.032C101.785 40.0533 101.67 40.064 101.553 40.064C101.436 40.064 101.329 40.056 101.233 40.04C101.142 40.024 101.065 39.992 101.001 39.944C100.937 39.896 100.886 39.832 100.849 39.752C100.817 39.6667 100.801 39.5573 100.801 39.424V34.784C100.86 34.7733 100.945 34.76 101.057 34.744C101.174 34.7227 101.292 34.712 101.409 34.712C101.526 34.712 101.63 34.72 101.721 34.736C101.817 34.752 101.897 34.784 101.961 34.832C102.025 34.88 102.073 34.9467 102.105 35.032C102.142 35.112 102.161 35.2187 102.161 35.352V39.992ZM56.472 49.128C56.1573 49.128 55.864 49.0853 55.592 49C55.3253 48.9093 55.0907 48.776 54.888 48.6C54.6907 48.424 54.5333 48.2027 54.416 47.936C54.304 47.6693 54.248 47.3573 54.248 47C54.248 46.648 54.304 46.3467 54.416 46.096C54.5333 45.84 54.6853 45.632 54.872 45.472C55.0587 45.3067 55.272 45.1867 55.512 45.112C55.752 45.032 55.9973 44.992 56.248 44.992C56.5307 44.992 56.7867 45.0347 57.016 45.12C57.2507 45.2053 57.4507 45.3227 57.616 45.472C57.7867 45.6213 57.9173 45.8 58.008 46.008C58.104 46.216 58.152 46.4427 58.152 46.688C58.152 46.8693 58.1013 47.008 58 47.104C57.8987 47.2 57.7573 47.2613 57.576 47.288L55.6 47.584C55.6587 47.76 55.7787 47.8933 55.96 47.984C56.1413 48.0693 56.3493 48.112 56.584 48.112C56.8027 48.112 57.008 48.0853 57.2 48.032C57.3973 47.9733 57.5573 47.9067 57.68 47.832C57.7653 47.8853 57.8373 47.96 57.896 48.056C57.9547 48.152 57.984 48.2533 57.984 48.36C57.984 48.6 57.872 48.7787 57.648 48.896C57.4773 48.9867 57.2853 49.048 57.072 49.08C56.8587 49.112 56.6587 49.128 56.472 49.128ZM56.248 45.984C56.12 45.984 56.008 46.0053 55.912 46.048C55.8213 46.0907 55.7467 46.1467 55.688 46.216C55.6293 46.28 55.584 46.3547 55.552 46.44C55.5253 46.52 55.5093 46.6027 55.504 46.688L56.872 46.464C56.856 46.3573 56.7973 46.2507 56.696 46.144C56.5947 46.0373 56.4453 45.984 56.248 45.984ZM60.5906 48.992C60.532 49.0027 60.444 49.016 60.3266 49.032C60.2146 49.0533 60.1 49.064 59.9826 49.064C59.8653 49.064 59.7586 49.056 59.6626 49.04C59.572 49.024 59.4946 48.992 59.4306 48.944C59.3666 48.896 59.316 48.832 59.2786 48.752C59.2466 48.6667 59.2306 48.5573 59.2306 48.424V43.784C59.2893 43.7733 59.3746 43.76 59.4866 43.744C59.604 43.7227 59.7213 43.712 59.8386 43.712C59.956 43.712 60.06 43.72 60.1506 43.736C60.2466 43.752 60.3266 43.784 60.3906 43.832C60.4546 43.88 60.5026 43.9467 60.5346 44.032C60.572 44.112 60.5906 44.2187 60.5906 44.352V48.992ZM63.9048 49.128C63.5901 49.128 63.2968 49.0853 63.0248 49C62.7581 48.9093 62.5235 48.776 62.3208 48.6C62.1235 48.424 61.9661 48.2027 61.8488 47.936C61.7368 47.6693 61.6808 47.3573 61.6808 47C61.6808 46.648 61.7368 46.3467 61.8488 46.096C61.9661 45.84 62.1181 45.632 62.3048 45.472C62.4915 45.3067 62.7048 45.1867 62.9448 45.112C63.1848 45.032 63.4301 44.992 63.6808 44.992C63.9635 44.992 64.2195 45.0347 64.4488 45.12C64.6835 45.2053 64.8835 45.3227 65.0488 45.472C65.2195 45.6213 65.3501 45.8 65.4408 46.008C65.5368 46.216 65.5848 46.4427 65.5848 46.688C65.5848 46.8693 65.5341 47.008 65.4328 47.104C65.3315 47.2 65.1901 47.2613 65.0088 47.288L63.0328 47.584C63.0915 47.76 63.2115 47.8933 63.3928 47.984C63.5741 48.0693 63.7821 48.112 64.0168 48.112C64.2355 48.112 64.4408 48.0853 64.6328 48.032C64.8301 47.9733 64.9901 47.9067 65.1128 47.832C65.1981 47.8853 65.2701 47.96 65.3288 48.056C65.3875 48.152 65.4168 48.2533 65.4168 48.36C65.4168 48.6 65.3048 48.7787 65.0808 48.896C64.9101 48.9867 64.7181 49.048 64.5048 49.08C64.2915 49.112 64.0915 49.128 63.9048 49.128ZM63.6808 45.984C63.5528 45.984 63.4408 46.0053 63.3448 46.048C63.2541 46.0907 63.1795 46.1467 63.1208 46.216C63.0621 46.28 63.0168 46.3547 62.9848 46.44C62.9581 46.52 62.9421 46.6027 62.9368 46.688L64.3048 46.464C64.2888 46.3573 64.2301 46.2507 64.1288 46.144C64.0275 46.0373 63.8781 45.984 63.6808 45.984ZM68.8314 46.064C68.6981 46.064 68.5701 46.0853 68.4474 46.128C68.3301 46.1707 68.2261 46.2347 68.1354 46.32C68.0501 46.4 67.9808 46.5013 67.9274 46.624C67.8741 46.7467 67.8474 46.8907 67.8474 47.056C67.8474 47.3867 67.9408 47.6347 68.1274 47.8C68.3194 47.9653 68.5514 48.048 68.8234 48.048C68.9834 48.048 69.1221 48.0293 69.2394 47.992C69.3568 47.9547 69.4608 47.9147 69.5514 47.872C69.6581 47.9467 69.7381 48.0293 69.7914 48.12C69.8448 48.2053 69.8714 48.3093 69.8714 48.432C69.8714 48.6507 69.7674 48.8213 69.5594 48.944C69.3514 49.0613 69.0634 49.12 68.6954 49.12C68.3594 49.12 68.0554 49.072 67.7834 48.976C67.5114 48.8747 67.2768 48.736 67.0794 48.56C66.8874 48.3787 66.7381 48.1627 66.6314 47.912C66.5248 47.6613 66.4714 47.384 66.4714 47.08C66.4714 46.728 66.5274 46.4213 66.6394 46.16C66.7568 45.8933 66.9141 45.6747 67.1114 45.504C67.3088 45.3333 67.5354 45.2053 67.7914 45.12C68.0528 45.0347 68.3274 44.992 68.6154 44.992C68.9994 44.992 69.2954 45.0613 69.5034 45.2C69.7114 45.3387 69.8154 45.5173 69.8154 45.736C69.8154 45.8373 69.7914 45.9333 69.7434 46.024C69.6954 46.1093 69.6394 46.184 69.5754 46.248C69.4848 46.2053 69.3754 46.1653 69.2474 46.128C69.1194 46.0853 68.9808 46.064 68.8314 46.064ZM72.3135 47.664C72.3135 47.8027 72.3562 47.9013 72.4415 47.96C72.5322 48.0187 72.6575 48.048 72.8175 48.048C72.8975 48.048 72.9802 48.0427 73.0655 48.032C73.1508 48.016 73.2255 47.9973 73.2895 47.976C73.3375 48.0347 73.3775 48.1013 73.4095 48.176C73.4468 48.2453 73.4655 48.3307 73.4655 48.432C73.4655 48.6347 73.3882 48.8 73.2335 48.928C73.0842 49.056 72.8175 49.12 72.4335 49.12C71.9642 49.12 71.6015 49.0133 71.3455 48.8C71.0948 48.5867 70.9695 48.24 70.9695 47.76V44.336C71.0282 44.32 71.1108 44.304 71.2175 44.288C71.3295 44.2667 71.4468 44.256 71.5695 44.256C71.8042 44.256 71.9855 44.2987 72.1135 44.384C72.2468 44.464 72.3135 44.6373 72.3135 44.904V45.416H73.3615C73.3935 45.4747 73.4228 45.5493 73.4495 45.64C73.4815 45.7253 73.4975 45.8213 73.4975 45.928C73.4975 46.1147 73.4548 46.2507 73.3695 46.336C73.2895 46.416 73.1802 46.456 73.0415 46.456H72.3135V47.664ZM74.5246 44.032C74.5246 43.8293 74.5913 43.6587 74.7246 43.52C74.8633 43.3813 75.0446 43.312 75.2686 43.312C75.4926 43.312 75.6713 43.3813 75.8046 43.52C75.9433 43.6587 76.0126 43.8293 76.0126 44.032C76.0126 44.2347 75.9433 44.4053 75.8046 44.544C75.6713 44.6827 75.4926 44.752 75.2686 44.752C75.0446 44.752 74.8633 44.6827 74.7246 44.544C74.5913 44.4053 74.5246 44.2347 74.5246 44.032ZM75.9486 48.992C75.89 49.0027 75.802 49.016 75.6846 49.032C75.5726 49.0533 75.458 49.064 75.3406 49.064C75.2233 49.064 75.1166 49.056 75.0206 49.04C74.93 49.024 74.8526 48.992 74.7886 48.944C74.7246 48.896 74.674 48.832 74.6366 48.752C74.6046 48.6667 74.5886 48.5573 74.5886 48.424V45.168C74.6473 45.1573 74.7326 45.144 74.8446 45.128C74.962 45.1067 75.0793 45.096 75.1966 45.096C75.314 45.096 75.418 45.104 75.5086 45.12C75.6046 45.136 75.6846 45.168 75.7486 45.216C75.8126 45.264 75.8606 45.3307 75.8926 45.416C75.93 45.496 75.9486 45.6027 75.9486 45.736V48.992ZM81.2384 47.056C81.2384 47.3867 81.1878 47.6827 81.0864 47.944C80.9851 48.2 80.8411 48.416 80.6544 48.592C80.4731 48.768 80.2544 48.9013 79.9984 48.992C79.7424 49.0827 79.4571 49.128 79.1424 49.128C78.8278 49.128 78.5424 49.08 78.2864 48.984C78.0304 48.888 77.8091 48.752 77.6224 48.576C77.4411 48.3947 77.2998 48.176 77.1984 47.92C77.0971 47.664 77.0464 47.376 77.0464 47.056C77.0464 46.7413 77.0971 46.456 77.1984 46.2C77.2998 45.944 77.4411 45.728 77.6224 45.552C77.8091 45.3707 78.0304 45.232 78.2864 45.136C78.5424 45.04 78.8278 44.992 79.1424 44.992C79.4571 44.992 79.7424 45.0427 79.9984 45.144C80.2544 45.24 80.4731 45.3787 80.6544 45.56C80.8411 45.736 80.9851 45.952 81.0864 46.208C81.1878 46.464 81.2384 46.7467 81.2384 47.056ZM78.4384 47.056C78.4384 47.3813 78.4998 47.632 78.6224 47.808C78.7504 47.9787 78.9264 48.064 79.1504 48.064C79.3744 48.064 79.5451 47.976 79.6624 47.8C79.7851 47.624 79.8464 47.376 79.8464 47.056C79.8464 46.736 79.7851 46.4907 79.6624 46.32C79.5398 46.144 79.3664 46.056 79.1424 46.056C78.9184 46.056 78.7451 46.144 78.6224 46.32C78.4998 46.4907 78.4384 46.736 78.4384 47.056ZM84.7659 46.536C84.7659 46.3707 84.7179 46.2507 84.6219 46.176C84.5313 46.096 84.4059 46.056 84.2459 46.056C84.1393 46.056 84.0326 46.0693 83.9259 46.096C83.8246 46.1227 83.7366 46.1627 83.6619 46.216V48.992C83.6086 49.008 83.5233 49.024 83.4059 49.04C83.2939 49.056 83.1766 49.064 83.0539 49.064C82.9366 49.064 82.8299 49.056 82.7339 49.04C82.6433 49.024 82.5659 48.992 82.5019 48.944C82.4379 48.896 82.3873 48.832 82.3499 48.752C82.3179 48.6667 82.3019 48.5573 82.3019 48.424V46.024C82.3019 45.88 82.3313 45.7627 82.3899 45.672C82.4539 45.5813 82.5393 45.4987 82.6459 45.424C82.8273 45.296 83.0539 45.192 83.3259 45.112C83.6033 45.032 83.9099 44.992 84.2459 44.992C84.8486 44.992 85.3126 45.1253 85.6379 45.392C85.9633 45.6533 86.1259 46.0187 86.1259 46.488V48.992C86.0726 49.008 85.9873 49.024 85.8699 49.04C85.7579 49.056 85.6406 49.064 85.5179 49.064C85.4006 49.064 85.2939 49.056 85.1979 49.04C85.1073 49.024 85.0299 48.992 84.9659 48.944C84.9019 48.896 84.8513 48.832 84.8139 48.752C84.7819 48.6667 84.7659 48.5573 84.7659 48.424V46.536Z" fill="#FEFBF3"/>
<path fill-rule="evenodd" clip-rule="evenodd" d="M20 15H12C10.8954 15 10 15.8954 10 17V48C10 49.1046 10.8954 50 12 50H46C47.1046 50 48 49.1046 48 48V17C48 15.8954 47.1046 15 46 15H38V16.9444H39C39.5523 16.9444 40 17.3922 40 17.9444V18.8611C40 19.4134 39.5523 19.8611 39 19.8611H19C18.4477 19.8611 18 19.4134 18 18.8611V17.9444C18 17.3922 18.4477 16.9444 19 16.9444H20V15ZM35.8988 46.482C35.9205 46.243 35.9315 46.0281 35.8956 45.8829C35.6579 44.9191 34.8344 44.3577 34.0231 43.8047L33.9629 43.7636C32.9121 43.0464 32.3305 42.3372 32.0975 41.1029C32.0751 40.9843 32.0573 40.8644 32.0396 40.7448C31.9676 40.2601 31.8963 39.7792 31.5219 39.4003C31.4799 39.3578 31.4359 39.3167 31.3919 39.2757C31.2862 39.1772 31.1805 39.0786 31.1024 38.9594C30.8797 38.6186 31.0662 38.1356 31.2273 37.7186L31.2273 37.7185C31.2849 37.5694 31.3392 37.4288 31.3704 37.3061C31.5296 36.6805 31.5765 36.0298 31.6234 35.38C31.6753 34.66 31.7271 33.9412 31.9315 33.2594C32.2111 32.3265 32.8524 31.53 33.4751 30.7566C33.6369 30.5556 33.7975 30.3561 33.9501 30.1563C34.9464 28.8518 35.8628 27.4947 36.7723 26.1347C37.1655 25.5467 37.4943 24.9993 37.7776 24.3589L37.8239 24.2537C38.0319 23.7792 38.2646 23.2485 38.7353 22.9673C39.1781 22.7029 39.6727 22.5787 40.1686 22.4542C40.4402 22.386 40.7121 22.3177 40.9762 22.2262C41.3882 22.0835 41.4937 22.0022 41.7025 21.6677C41.756 21.582 41.7937 21.4904 41.8308 21.4004C41.9149 21.1966 41.9956 21.0009 42.2471 20.9016C42.8129 20.6784 43.2057 21.0438 43.5881 21.3994L43.5881 21.3994C43.7516 21.5514 43.9132 21.7017 44.0855 21.8034C44.2849 21.921 44.5193 22.0008 44.755 22.081C45.1992 22.2321 45.6479 22.3848 45.8746 22.7953C46.1868 23.3605 45.861 23.5474 45.4991 23.7549C45.2775 23.882 45.0424 24.0168 44.932 24.251C44.6916 24.7617 44.8312 25.3665 44.9565 25.9097C44.9786 26.0054 45.0002 26.0992 45.0192 26.1902C45.1464 26.7982 44.9259 27.2303 44.671 27.7298C44.6018 27.8655 44.53 28.0063 44.4619 28.1568C44.3855 28.3259 44.3085 28.4926 44.232 28.6581L44.2318 28.6584C43.8394 29.5072 43.4621 30.3233 43.2703 31.2549C43.2113 31.5416 43.1543 31.8289 43.0973 32.1164L43.0971 32.1173C42.8624 33.3003 42.6273 34.4851 42.2532 35.6295C41.6891 37.3554 41.1177 38.8946 40.1332 40.4627C39.8911 40.8484 39.594 41.178 39.2965 41.5083C39.0236 41.8112 38.7502 42.1146 38.5183 42.4622C37.9021 43.3859 37.3947 44.6296 37.3413 45.7297C37.3351 45.8584 37.3378 46.0056 37.3407 46.1622C37.3544 46.91 37.3721 47.8709 36.4363 48.0416L36.4357 48.0417C35.7295 48.1703 35.8091 47.3792 35.8794 46.6804L35.8794 46.6802C35.8862 46.613 35.8929 46.5466 35.8988 46.482Z" fill="#FEFBF3"/>
<path d="M62.736 28H54.7747L54.7187 27.888C54.6876 27.8009 54.672 27.3809 54.672 26.628C54.672 25.7382 55.2787 24.8204 56.492 23.8747C57.5 23.0471 58.2187 22.3596 58.648 21.812C59.0773 21.2644 59.292 20.7262 59.292 20.1973C59.292 19.8924 59.2236 19.6031 59.0867 19.3293C58.844 18.8378 58.4831 18.592 58.004 18.592C57.5996 18.592 57.2573 18.6356 56.9773 18.7227L56.5293 20.6453L54.8307 20.636L54.6907 18.4427C55.3689 17.416 56.6662 16.9027 58.5827 16.9027C59.0182 16.9027 59.4227 16.9338 59.796 16.996C60.1693 17.0582 60.5271 17.1671 60.8693 17.3227C61.2178 17.4782 61.5133 17.6742 61.756 17.9107C61.9987 18.1471 62.1916 18.452 62.3347 18.8253C62.4778 19.1924 62.5493 19.6156 62.5493 20.0947C62.5493 20.4431 62.4933 20.776 62.3813 21.0933C62.2756 21.4044 62.1293 21.6813 61.9427 21.924C61.7622 22.1604 61.5444 22.3969 61.2893 22.6333C61.0342 22.8698 60.7667 23.0813 60.4867 23.268C60.2129 23.4547 59.9173 23.6538 59.6 23.8653C59.2889 24.0769 58.9902 24.2791 58.704 24.472C58.424 24.6587 58.1409 24.8733 57.8547 25.116C57.5747 25.3587 57.3351 25.6013 57.136 25.844L62.736 25.424V28ZM68.0582 23.772C68.0582 24.7862 68.1515 25.5018 68.3382 25.9187C68.5249 26.3293 68.8204 26.5347 69.2249 26.5347C69.5235 26.5347 69.7537 26.4662 69.9155 26.3293C70.0773 26.1862 70.2049 25.8813 70.2982 25.4147C70.3915 24.9418 70.4382 24.2542 70.4382 23.352V21.1027C70.4382 19.3418 70.0337 18.4613 69.2249 18.4613C68.8142 18.4613 68.5155 18.6791 68.3289 19.1147C68.1484 19.5502 68.0582 20.3218 68.0582 21.4293V23.772ZM69.0289 28.196C68.3071 28.196 67.6817 28.1058 67.1529 27.9253C66.6302 27.7387 66.2071 27.4898 65.8835 27.1787C65.56 26.8676 65.3017 26.4662 65.1089 25.9747C64.9222 25.4831 64.7946 24.9698 64.7262 24.4347C64.6577 23.8996 64.6235 23.2773 64.6235 22.568C64.6235 21.8276 64.6671 21.1773 64.7542 20.6173C64.8413 20.0573 64.9937 19.5378 65.2115 19.0587C65.4293 18.5733 65.7186 18.1782 66.0795 17.8733C66.4404 17.5622 66.9009 17.3196 67.4609 17.1453C68.0271 16.9711 68.6897 16.884 69.4489 16.884C70.1706 16.884 70.796 16.9773 71.3249 17.164C71.86 17.3507 72.2862 17.6027 72.6035 17.92C72.9271 18.2373 73.1853 18.6449 73.3782 19.1427C73.5711 19.6404 73.7017 20.1569 73.7702 20.692C73.8386 21.2209 73.8729 21.84 73.8729 22.5493C73.8729 23.2898 73.8293 23.94 73.7422 24.5C73.6551 25.06 73.4995 25.5796 73.2755 26.0587C73.0577 26.5378 72.7653 26.9298 72.3982 27.2347C72.0373 27.5396 71.5737 27.776 71.0075 27.944C70.4475 28.112 69.788 28.196 69.0289 28.196ZM83.9799 28H76.0186L75.9626 27.888C75.9315 27.8009 75.9159 27.3809 75.9159 26.628C75.9159 25.7382 76.5226 24.8204 77.7359 23.8747C78.7439 23.0471 79.4626 22.3596 79.8919 21.812C80.3212 21.2644 80.5359 20.7262 80.5359 20.1973C80.5359 19.8924 80.4675 19.6031 80.3306 19.3293C80.0879 18.8378 79.727 18.592 79.2479 18.592C78.8435 18.592 78.5012 18.6356 78.2212 18.7227L77.7732 20.6453L76.0746 20.636L75.9346 18.4427C76.6128 17.416 77.9101 16.9027 79.8266 16.9027C80.2621 16.9027 80.6666 16.9338 81.0399 16.996C81.4132 17.0582 81.771 17.1671 82.1132 17.3227C82.4617 17.4782 82.7572 17.6742 82.9999 17.9107C83.2426 18.1471 83.4355 18.452 83.5786 18.8253C83.7217 19.1924 83.7932 19.6156 83.7932 20.0947C83.7932 20.4431 83.7372 20.776 83.6252 21.0933C83.5195 21.4044 83.3732 21.6813 83.1866 21.924C83.0061 22.1604 82.7884 22.3969 82.5332 22.6333C82.2781 22.8698 82.0106 23.0813 81.7306 23.268C81.4568 23.4547 81.1612 23.6538 80.8439 23.8653C80.5328 24.0769 80.2341 24.2791 79.9479 24.472C79.6679 24.6587 79.3848 24.8733 79.0986 25.116C78.8186 25.3587 78.579 25.6013 78.3799 25.844L83.9799 25.424V28ZM89.3021 23.772C89.3021 24.7862 89.3954 25.5018 89.5821 25.9187C89.7688 26.3293 90.0643 26.5347 90.4688 26.5347C90.7674 26.5347 90.9976 26.4662 91.1594 26.3293C91.3212 26.1862 91.4488 25.8813 91.5421 25.4147C91.6354 24.9418 91.6821 24.2542 91.6821 23.352V21.1027C91.6821 19.3418 91.2776 18.4613 90.4688 18.4613C90.0581 18.4613 89.7594 18.6791 89.5728 19.1147C89.3923 19.5502 89.3021 20.3218 89.3021 21.4293V23.772ZM90.2728 28.196C89.551 28.196 88.9256 28.1058 88.3968 27.9253C87.8741 27.7387 87.451 27.4898 87.1274 27.1787C86.8039 26.8676 86.5456 26.4662 86.3528 25.9747C86.1661 25.4831 86.0385 24.9698 85.9701 24.4347C85.9016 23.8996 85.8674 23.2773 85.8674 22.568C85.8674 21.8276 85.911 21.1773 85.9981 20.6173C86.0852 20.0573 86.2376 19.5378 86.4554 19.0587C86.6732 18.5733 86.9625 18.1782 87.3234 17.8733C87.6843 17.5622 88.1448 17.3196 88.7048 17.1453C89.271 16.9711 89.9336 16.884 90.6928 16.884C91.4145 16.884 92.0399 16.9773 92.5688 17.164C93.1039 17.3507 93.5301 17.6027 93.8474 17.92C94.171 18.2373 94.4292 18.6449 94.6221 19.1427C94.815 19.6404 94.9456 20.1569 95.0141 20.692C95.0825 21.2209 95.1168 21.84 95.1168 22.5493C95.1168 23.2898 95.0732 23.94 94.9861 24.5C94.899 25.06 94.7434 25.5796 94.5194 26.0587C94.3016 26.5378 94.0092 26.9298 93.6421 27.2347C93.2812 27.5396 92.8176 27.776 92.2514 27.944C91.6914 28.112 91.0319 28.196 90.2728 28.196Z" fill="#FEFBF3"/>
</svg>
