<svg width="30" height="32" viewBox="0 0 30 32" fill="none" xmlns="http://www.w3.org/2000/svg">
<path fill-rule="evenodd" clip-rule="evenodd" d="M22.3893 30.4048V26.6898C22.3893 25.2019 23.6367 23.9841 25.161 23.9841H29.0132L29.0884 23.9109V10.9873H0.910637V28.6579C0.910637 29.6553 1.74974 30.4755 2.77296 30.4755H22.3171L22.3893 30.4048ZM23.5095 0C24.0264 0 24.4497 0.414021 24.4497 0.9188V3.52768C24.4497 4.03216 24.0264 4.44527 23.5095 4.44527C22.9926 4.44527 22.5687 4.03216 22.5687 3.52768V0.9188C22.5687 0.414325 22.992 0 23.5095 0ZM6.49077 0C7.00767 0 7.43096 0.414021 7.43096 0.9188V3.52768C7.43096 4.03216 7.00767 4.44527 6.49077 4.44527C5.97388 4.44527 5.54997 4.03216 5.54997 3.52768V0.9188C5.54997 0.414325 5.97325 0 6.49077 0ZM2.77265 2.08528H4.94288V3.52768C4.94288 4.35967 5.6383 5.03837 6.49077 5.03837C7.34325 5.03837 8.03805 4.35967 8.03805 3.52768V2.08528H21.9616V3.52768C21.9616 4.35967 22.6564 5.03837 23.5095 5.03837C24.3626 5.03837 25.0568 4.35967 25.0568 3.52768V2.08528H27.2277C28.7525 2.08528 30 3.30306 30 4.79099V24.2797L22.6928 31.3636H2.77296C1.24808 31.3636 0 30.1468 0 28.6579V4.79099C0 3.30306 1.24746 2.08528 2.77265 2.08528Z" fill="#0D2562"/>
<path fill-rule="evenodd" clip-rule="evenodd" d="M15 27C18.866 27 22 23.866 22 20C22 16.134 18.866 13 15 13C11.134 13 8 16.134 8 20C8 23.866 11.134 27 15 27ZM14.2222 20.9665V25.5696C12.8085 25.374 11.5627 24.6528 10.6885 23.6097L14.2222 20.9665ZM14.2222 19.0401V14.4304C11.4848 14.8091 9.37701 17.1584 9.37701 20C9.37701 20.8186 9.55197 21.5965 9.86654 22.2981L14.2222 19.0401ZM15.7778 25.5696C18.5151 25.1908 20.6229 22.8415 20.6229 20C20.6229 17.1584 18.5151 14.8091 15.7778 14.4304V25.5696Z" fill="#0D2562"/>
</svg>
