<svg width="82" height="65" viewBox="0 0 82 65" fill="none" xmlns="http://www.w3.org/2000/svg">
<g filter="url(#filter0_d_811_4524)">
<g filter="url(#filter1_d_811_4524)">
<path d="M8.216 38.16H5.768V47.856H8.216V38.16ZM10.256 36V50.016H5.768V51.888H3.728V36H10.256ZM13.544 41.856V38.808H10.904V36.72H13.544V34.152H15.656V36.72H17.288V38.808H15.656V41.856H13.544ZM16.664 44.832H13.664V47.784H16.664V44.832ZM21.848 47.784V44.832H18.728V47.784H21.848ZM18.728 52.752H21.848V49.704H18.728V52.752ZM13.664 52.752H16.664V49.704H13.664V52.752ZM11.6 55.896V42.864H24.008V55.752H21.848V54.744H13.664V55.896H11.6ZM21.824 36.768H24.992V38.808H21.824V41.832H19.688V38.808H18.08V36.768H19.688V34.152H21.824V36.768ZM44.408 43.512V39.432C43.4 40.92 42.128 42.264 40.88 43.08C40.568 42.576 39.92 41.856 39.464 41.472C40.928 40.728 42.512 39.336 43.616 37.872H40.568V36H44.408V33.912H46.568V36H50.672V37.872H46.736C47.96 38.736 50.552 40.776 51.176 41.352L49.976 43.032C49.352 42.264 47.792 40.68 46.568 39.504V43.512H44.408ZM34.136 43.56V39.648C33.176 41.016 31.976 42.288 30.872 43.08C30.536 42.6 29.912 41.904 29.432 41.544C30.848 40.752 32.36 39.336 33.44 37.872H30.176V36H34.136V33.912H36.344V36H39.656V37.872H36.512C37.376 38.424 39.248 39.672 39.704 40.032L38.528 41.736C38.12 41.184 37.16 40.224 36.344 39.456V43.56H34.136ZM41.408 50.712V53.424C42.104 53.496 42.848 53.52 43.664 53.52C44.768 53.544 50.024 53.52 51.488 53.472C51.152 54 50.816 54.96 50.744 55.584H43.544C39.128 55.584 36.392 54.936 34.64 52.104C33.848 53.616 32.624 54.96 30.728 55.92C30.464 55.368 29.816 54.552 29.312 54.168C32.552 52.656 33.344 49.824 33.68 47.28H35.984C35.864 48.048 35.768 48.816 35.576 49.536C36.296 51.432 37.472 52.488 39.152 52.992V46.344H30.344V44.304H48.824L49.184 44.232L50.84 44.616C50.336 45.96 49.616 47.52 49.064 48.504L47.072 48.072C47.312 47.592 47.576 46.968 47.84 46.344H41.408V48.744H47.84V50.712H41.408ZM68 37.128H63.032C62.48 37.848 61.856 38.568 61.208 39.264H66.416C66.968 38.64 67.544 37.872 68 37.128ZM72.896 43.464V41.16H67.832V43.464H72.896ZM72.896 47.568V45.216H67.832V47.568H72.896ZM60.92 45.216V47.568H65.672V45.216H60.92ZM60.92 41.16V43.464H65.672V41.16H60.92ZM58.76 49.44V41.52C58.352 41.856 57.92 42.192 57.464 42.504C57.104 41.952 56.384 41.16 55.856 40.8C59.024 38.784 61.304 36 62.552 33.744L65.024 34.248C64.808 34.608 64.568 34.992 64.328 35.352H69.248L69.584 35.232L71.144 36.192C70.664 37.176 69.896 38.304 69.152 39.264H75.152V49.44H58.76ZM57.752 55.944L55.712 54.792C57.032 53.808 58.304 52.032 59.024 50.256L61.16 50.856C60.416 52.752 59.168 54.744 57.752 55.944ZM63.008 50.952L65.144 50.784C65.48 52.248 65.744 54.192 65.768 55.344L63.488 55.608C63.488 54.432 63.296 52.464 63.008 50.952ZM67.688 51.024L69.728 50.568C70.424 51.984 71.168 53.856 71.456 55.056L69.296 55.584C69.056 54.408 68.36 52.464 67.688 51.024ZM72.296 50.88L74.336 50.016C75.656 51.48 77.264 53.496 77.96 54.912L75.776 55.896C75.152 54.552 73.64 52.416 72.296 50.88Z" fill="#FEFBF3"/>
</g>
<g filter="url(#filter2_d_811_4524)">
<mask id="path-2-outside-1_811_4524" maskUnits="userSpaceOnUse" x="4" y="3" width="34" height="20" fill="black">
<rect fill="white" x="4" y="3" width="34" height="20"/>
<path d="M19.6 16.842C19.6 17.5167 19.4973 18.1327 19.292 18.69C19.1013 19.2327 18.7567 19.702 18.258 20.098C17.7593 20.4793 17.0847 20.78 16.234 21C15.3833 21.22 14.3053 21.33 13 21.33C11.6947 21.33 10.6167 21.22 9.766 21C8.91533 20.78 8.24067 20.4793 7.742 20.098C7.24333 19.702 6.89133 19.2327 6.686 18.69C6.49533 18.1327 6.4 17.5167 6.4 16.842V9.34C6.4 8.66533 6.49533 8.05667 6.686 7.514C6.89133 6.95667 7.24333 6.48 7.742 6.084C8.24067 5.688 8.91533 5.38 9.766 5.16C10.6167 4.94 11.6947 4.83 13 4.83C14.3053 4.83 15.3833 4.94 16.234 5.16C17.0847 5.38 17.7593 5.688 18.258 6.084C18.7567 6.48 19.1013 6.95667 19.292 7.514C19.4973 8.05667 19.6 8.66533 19.6 9.34V16.842ZM11.372 16.05C11.372 16.3433 11.4747 16.5927 11.68 16.798C11.9 16.9887 12.34 17.084 13 17.084C13.66 17.084 14.1 16.9887 14.32 16.798C14.54 16.5927 14.65 16.3433 14.65 16.05V10.132C14.65 9.85333 14.54 9.61867 14.32 9.428C14.1 9.22267 13.66 9.12 13 9.12C12.34 9.12 11.9 9.22267 11.68 9.428C11.4747 9.61867 11.372 9.85333 11.372 10.132V16.05ZM35.572 21H25.848C25.5693 21 25.364 20.9413 25.232 20.824C25.1147 20.692 25.056 20.4867 25.056 20.208V17.546C25.056 17.2673 25.1147 17.0693 25.232 16.952C25.364 16.82 25.5693 16.754 25.848 16.754H28.312V9.406H26.288C26.0093 9.406 25.804 9.34733 25.672 9.23C25.5547 9.098 25.496 8.89267 25.496 8.614V5.952C25.496 5.67333 25.5547 5.47533 25.672 5.358C25.804 5.226 26.0093 5.16 26.288 5.16H32.668C32.9467 5.16 33.1447 5.226 33.262 5.358C33.394 5.47533 33.46 5.67333 33.46 5.952V16.754H35.572C35.8507 16.754 36.0487 16.82 36.166 16.952C36.298 17.0693 36.364 17.2673 36.364 17.546V20.208C36.364 20.4867 36.298 20.692 36.166 20.824C36.0487 20.9413 35.8507 21 35.572 21Z"/>
</mask>
<path d="M19.292 18.69L17.7907 18.1369L17.7865 18.1482L17.7825 18.1596L19.292 18.69ZM18.258 20.098L19.2299 21.369L19.2415 21.3601L19.253 21.351L18.258 20.098ZM16.234 21L15.8334 19.451L15.8334 19.451L16.234 21ZM7.742 20.098L6.74699 21.351L6.75845 21.3601L6.77008 21.369L7.742 20.098ZM6.686 18.69L5.17214 19.2079L5.18045 19.2322L5.18954 19.2562L6.686 18.69ZM6.686 7.514L5.18465 6.96087L5.18047 6.97221L5.17646 6.98362L6.686 7.514ZM7.742 6.084L6.74699 4.83102L6.74699 4.83102L7.742 6.084ZM16.234 5.16L15.8334 6.70903L15.8334 6.70903L16.234 5.16ZM18.258 6.084L17.263 7.33698L17.263 7.33698L18.258 6.084ZM19.292 7.514L17.7781 8.0319L17.7865 8.0562L17.7955 8.08023L19.292 7.514ZM11.68 16.798L10.5486 17.9294L10.589 17.9697L10.6321 18.0071L11.68 16.798ZM14.32 16.798L15.3679 18.0071L15.3902 17.9878L15.4117 17.9677L14.32 16.798ZM14.32 9.428L13.2283 10.5977L13.2498 10.6178L13.2721 10.6371L14.32 9.428ZM11.68 9.428L12.7687 10.6005L12.7717 10.5977L11.68 9.428ZM18 16.842C18 17.3533 17.9225 17.779 17.7907 18.1369L20.7933 19.2431C21.0722 18.4863 21.2 17.68 21.2 16.842H18ZM17.7825 18.1596C17.7023 18.3878 17.5516 18.6158 17.263 18.845L19.253 21.351C19.9617 20.7882 20.5004 20.0775 20.8015 19.2204L17.7825 18.1596ZM17.2861 18.827C17.0108 19.0375 16.5539 19.2646 15.8334 19.451L16.6346 22.549C17.6154 22.2954 18.5079 21.9211 19.2299 21.369L17.2861 18.827ZM15.8334 19.451C15.1602 19.6251 14.2288 19.73 13 19.73V22.93C14.3818 22.93 15.6064 22.8149 16.6346 22.549L15.8334 19.451ZM13 19.73C11.7712 19.73 10.8398 19.6251 10.1666 19.451L9.36539 22.549C10.3936 22.8149 11.6182 22.93 13 22.93V19.73ZM10.1666 19.451C9.44608 19.2646 8.9892 19.0375 8.71392 18.827L6.77008 21.369C7.49213 21.9211 8.38459 22.2954 9.36539 22.549L10.1666 19.451ZM8.73701 18.845C8.44166 18.6105 8.27585 18.3706 8.18246 18.1238L5.18954 19.2562C5.50682 20.0947 6.045 20.7935 6.74699 21.351L8.73701 18.845ZM8.19986 18.1721C8.07385 17.8038 8 17.3657 8 16.842H4.8C4.8 17.6677 4.91682 18.4616 5.17214 19.2079L8.19986 18.1721ZM8 16.842V9.34H4.8V16.842H8ZM8 9.34C8 8.81542 8.0741 8.39001 8.19554 8.04438L5.17646 6.98362C4.91657 7.72332 4.8 8.51525 4.8 9.34H8ZM8.18735 8.06713C8.28392 7.80501 8.45088 7.5642 8.73701 7.33698L6.74699 4.83102C6.03579 5.3958 5.49875 6.10832 5.18465 6.96087L8.18735 8.06713ZM8.73701 7.33698C9.00725 7.12238 9.45546 6.89295 10.1666 6.70903L9.36539 3.61096C8.37521 3.86704 7.47408 4.25362 6.74699 4.83102L8.73701 7.33698ZM10.1666 6.70903C10.8398 6.53495 11.7712 6.43 13 6.43V3.23C11.6182 3.23 10.3936 3.34505 9.36539 3.61096L10.1666 6.70903ZM13 6.43C14.2288 6.43 15.1602 6.53495 15.8334 6.70903L16.6346 3.61096C15.6064 3.34505 14.3818 3.23 13 3.23V6.43ZM15.8334 6.70903C16.5445 6.89295 16.9928 7.12238 17.263 7.33698L19.253 4.83102C18.5259 4.25362 17.6248 3.86704 16.6346 3.61096L15.8334 6.70903ZM17.263 7.33698C17.5422 7.5587 17.6946 7.7877 17.7781 8.0319L20.8059 6.9961C20.5081 6.12563 19.9711 5.4013 19.253 4.83102L17.263 7.33698ZM17.7955 8.08023C17.9223 8.4151 18 8.82781 18 9.34H21.2C21.2 8.50285 21.0724 7.69823 20.7885 6.94777L17.7955 8.08023ZM18 9.34V16.842H21.2V9.34H18ZM9.772 16.05C9.772 16.7628 10.0398 17.4206 10.5486 17.9294L12.8114 15.6666C12.8465 15.7017 12.8934 15.7625 12.9285 15.8478C12.9635 15.9328 12.972 16.0062 12.972 16.05H9.772ZM10.6321 18.0071C11.0264 18.3488 11.4844 18.5 11.8362 18.5762C12.2059 18.6563 12.6036 18.684 13 18.684V15.484C12.7364 15.484 12.5841 15.464 12.5138 15.4488C12.4816 15.4418 12.4888 15.4405 12.5224 15.455C12.5558 15.4695 12.6346 15.5081 12.7279 15.5889L10.6321 18.0071ZM13 18.684C13.3964 18.684 13.7941 18.6563 14.1638 18.5762C14.5156 18.5 14.9736 18.3488 15.3679 18.0071L13.2721 15.5889C13.3654 15.5081 13.4442 15.4695 13.4776 15.455C13.5112 15.4405 13.5185 15.4418 13.4862 15.4488C13.4159 15.464 13.2636 15.484 13 15.484V18.684ZM15.4117 17.9677C15.9464 17.4686 16.25 16.7997 16.25 16.05H13.05C13.05 15.9915 13.0622 15.9052 13.1036 15.8112C13.1447 15.7181 13.1967 15.6578 13.2283 15.6283L15.4117 17.9677ZM16.25 16.05V10.132H13.05V16.05H16.25ZM16.25 10.132C16.25 9.36615 15.9207 8.69797 15.3679 8.2189L13.2721 10.6371C13.2338 10.6039 13.1699 10.5352 13.1188 10.4261C13.0668 10.3152 13.05 10.2094 13.05 10.132H16.25ZM15.4117 8.25831C15.0195 7.89228 14.5547 7.72428 14.1886 7.63885C13.8085 7.55018 13.4018 7.52 13 7.52V10.72C13.1246 10.72 13.2254 10.7249 13.3051 10.7323C13.3855 10.7398 13.4357 10.7491 13.4614 10.7551C13.4882 10.7614 13.4755 10.7611 13.4371 10.7431C13.3983 10.725 13.3187 10.6821 13.2283 10.5977L15.4117 8.25831ZM13 7.52C12.5982 7.52 12.1915 7.55018 11.8114 7.63885C11.4453 7.72428 10.9805 7.89228 10.5883 8.25831L12.7717 10.5977C12.6813 10.6821 12.6017 10.725 12.5629 10.7431C12.5245 10.7611 12.5118 10.7614 12.5386 10.7551C12.5643 10.7491 12.6145 10.7398 12.6949 10.7323C12.7746 10.7249 12.8754 10.72 13 10.72V7.52ZM10.5913 8.25553C10.062 8.74703 9.772 9.40563 9.772 10.132H12.972C12.972 10.1938 12.9595 10.2862 12.9149 10.3883C12.8703 10.4902 12.8116 10.5606 12.7687 10.6005L10.5913 8.25553ZM9.772 10.132V16.05H12.972V10.132H9.772ZM25.232 20.824L24.0361 21.887L24.0987 21.9573L24.169 22.0199L25.232 20.824ZM25.232 16.952L24.1006 15.8206L24.1006 15.8206L25.232 16.952ZM28.312 16.754V18.354H29.912V16.754H28.312ZM28.312 9.406H29.912V7.806H28.312V9.406ZM25.672 9.23L24.4761 10.293L24.5387 10.3633L24.609 10.4259L25.672 9.23ZM25.672 5.358L24.5406 4.22663L24.5406 4.22663L25.672 5.358ZM33.262 5.358L32.0661 6.42098L32.1287 6.49132L32.199 6.55385L33.262 5.358ZM33.46 16.754H31.86V18.354H33.46V16.754ZM36.166 16.952L34.9701 18.015L35.0327 18.0853L35.103 18.1479L36.166 16.952ZM36.166 20.824L37.2974 21.9554L37.2974 21.9554L36.166 20.824ZM35.572 19.4H25.848V22.6H35.572V19.4ZM25.848 19.4C25.8148 19.4 25.8484 19.3958 25.9246 19.4176C26.0052 19.4406 26.1479 19.4974 26.295 19.6281L24.169 22.0199C24.7226 22.5119 25.393 22.6 25.848 22.6V19.4ZM26.4279 19.761C26.5586 19.9081 26.6154 20.0508 26.6384 20.1314C26.6602 20.2076 26.656 20.2412 26.656 20.208H23.456C23.456 20.663 23.5441 21.3334 24.0361 21.887L26.4279 19.761ZM26.656 20.208V17.546H23.456V20.208H26.656ZM26.656 17.546C26.656 17.5106 26.6607 17.5532 26.6341 17.643C26.6059 17.7381 26.5339 17.9128 26.3634 18.0834L24.1006 15.8206C23.5343 16.387 23.456 17.1147 23.456 17.546H26.656ZM26.3634 18.0834C26.0752 18.3715 25.7866 18.354 25.848 18.354V15.154C25.352 15.154 24.6528 15.2685 24.1006 15.8206L26.3634 18.0834ZM25.848 18.354H28.312V15.154H25.848V18.354ZM29.912 16.754V9.406H26.712V16.754H29.912ZM28.312 7.806H26.288V11.006H28.312V7.806ZM26.288 7.806C26.2548 7.806 26.2884 7.80182 26.3646 7.82356C26.4452 7.84661 26.5879 7.90339 26.735 8.03415L24.609 10.4259C25.1625 10.9179 25.833 11.006 26.288 11.006V7.806ZM26.8679 8.16702C26.9986 8.31411 27.0554 8.45678 27.0784 8.53745C27.1002 8.61356 27.096 8.64721 27.096 8.614H23.896C23.896 9.06903 23.9841 9.73945 24.4761 10.293L26.8679 8.16702ZM27.096 8.614V5.952H23.896V8.614H27.096ZM27.096 5.952C27.096 5.91662 27.1007 5.95923 27.0741 6.04904C27.0459 6.14415 26.9739 6.31881 26.8034 6.48937L24.5406 4.22663C23.9743 4.79301 23.896 5.52067 23.896 5.952H27.096ZM26.8034 6.48937C26.5152 6.77753 26.2266 6.76 26.288 6.76V3.56C25.792 3.56 25.0928 3.67447 24.5406 4.22663L26.8034 6.48937ZM26.288 6.76H32.668V3.56H26.288V6.76ZM32.668 6.76C32.6893 6.76 32.628 6.76355 32.5195 6.72739C32.4013 6.68798 32.2249 6.59963 32.0661 6.42098L34.4579 4.29502C33.8987 3.66595 33.1433 3.56 32.668 3.56V6.76ZM32.199 6.55385C32.0204 6.39506 31.932 6.21871 31.8926 6.10046C31.8565 5.992 31.86 5.9307 31.86 5.952H35.06C35.06 5.47673 34.9541 4.72132 34.325 4.16215L32.199 6.55385ZM31.86 5.952V16.754H35.06V5.952H31.86ZM33.46 18.354H35.572V15.154H33.46V18.354ZM35.572 18.354C35.5933 18.354 35.532 18.3575 35.4235 18.3214C35.3053 18.282 35.1289 18.1936 34.9701 18.015L37.3619 15.889C36.8027 15.2599 36.0473 15.154 35.572 15.154V18.354ZM35.103 18.1479C34.9244 17.9891 34.836 17.8127 34.7966 17.6945C34.7605 17.586 34.764 17.5247 34.764 17.546H37.964C37.964 17.0707 37.8581 16.3153 37.229 15.7561L35.103 18.1479ZM34.764 17.546V20.208H37.964V17.546H34.764ZM34.764 20.208C34.764 20.2694 34.7465 19.9808 35.0346 19.6926L37.2974 21.9554C37.8495 21.4032 37.964 20.704 37.964 20.208H34.764ZM35.0346 19.6926C35.2052 19.5221 35.3799 19.4501 35.475 19.4219C35.5648 19.3953 35.6074 19.4 35.572 19.4V22.6C36.0033 22.6 36.731 22.5217 37.2974 21.9554L35.0346 19.6926Z" fill="#FEFBF3" mask="url(#path-2-outside-1_811_4524)"/>
</g>
</g>
<defs>
<filter id="filter0_d_811_4524" x="0.728027" y="4.83008" width="80.2319" height="60.114" filterUnits="userSpaceOnUse" color-interpolation-filters="sRGB">
<feFlood flood-opacity="0" result="BackgroundImageFix"/>
<feColorMatrix in="SourceAlpha" type="matrix" values="0 0 0 0 0 0 0 0 0 0 0 0 0 0 0 0 0 0 127 0" result="hardAlpha"/>
<feOffset dy="6"/>
<feGaussianBlur stdDeviation="1.5"/>
<feComposite in2="hardAlpha" operator="out"/>
<feColorMatrix type="matrix" values="0 0 0 0 0 0 0 0 0 0 0 0 0 0 0 0 0 0 0.25 0"/>
<feBlend mode="normal" in2="BackgroundImageFix" result="effect1_dropShadow_811_4524"/>
<feBlend mode="normal" in="SourceGraphic" in2="effect1_dropShadow_811_4524" result="shape"/>
</filter>
<filter id="filter1_d_811_4524" x="3.72803" y="33.7439" width="78.2319" height="26.2002" filterUnits="userSpaceOnUse" color-interpolation-filters="sRGB">
<feFlood flood-opacity="0" result="BackgroundImageFix"/>
<feColorMatrix in="SourceAlpha" type="matrix" values="0 0 0 0 0 0 0 0 0 0 0 0 0 0 0 0 0 0 127 0" result="hardAlpha"/>
<feOffset dx="2" dy="2"/>
<feGaussianBlur stdDeviation="1"/>
<feComposite in2="hardAlpha" operator="out"/>
<feColorMatrix type="matrix" values="0 0 0 0 0.0527083 0 0 0 0 0.145283 0 0 0 0 0.383333 0 0 0 0.8 0"/>
<feBlend mode="normal" in2="BackgroundImageFix" result="effect1_dropShadow_811_4524"/>
<feBlend mode="normal" in="SourceGraphic" in2="effect1_dropShadow_811_4524" result="shape"/>
</filter>
<filter id="filter2_d_811_4524" x="6.3999" y="4.83008" width="33.9641" height="20.5" filterUnits="userSpaceOnUse" color-interpolation-filters="sRGB">
<feFlood flood-opacity="0" result="BackgroundImageFix"/>
<feColorMatrix in="SourceAlpha" type="matrix" values="0 0 0 0 0 0 0 0 0 0 0 0 0 0 0 0 0 0 127 0" result="hardAlpha"/>
<feOffset dx="2" dy="2"/>
<feGaussianBlur stdDeviation="1"/>
<feComposite in2="hardAlpha" operator="out"/>
<feColorMatrix type="matrix" values="0 0 0 0 0.0527083 0 0 0 0 0.145283 0 0 0 0 0.383333 0 0 0 1 0"/>
<feBlend mode="normal" in2="BackgroundImageFix" result="effect1_dropShadow_811_4524"/>
<feBlend mode="normal" in="SourceGraphic" in2="effect1_dropShadow_811_4524" result="shape"/>
</filter>
</defs>
</svg>
