<svg width="357" height="64" viewBox="0 0 357 64" fill="none" xmlns="http://www.w3.org/2000/svg">
<g opacity="0.7" filter="url(#filter0_bdi_811_4540)">
<path d="M17 3H347.837C351.142 3 353.825 5.67279 353.837 8.97782L353.978 46.9778C353.99 50.3002 351.3 53 347.978 53H17C13.6863 53 11 50.3137 11 47V9C11 5.68629 13.6863 3 17 3Z" fill="url(#paint0_linear_811_4540)" fill-opacity="0.6" shape-rendering="crispEdges"/>
<path d="M17 3H347.837C351.142 3 353.825 5.67279 353.837 8.97782L353.978 46.9778C353.99 50.3002 351.3 53 347.978 53H17C13.6863 53 11 50.3137 11 47V9C11 5.68629 13.6863 3 17 3Z" stroke="url(#paint1_linear_811_4540)" shape-rendering="crispEdges"/>
</g>
<g filter="url(#filter1_i_811_4540)">
<path d="M131.532 45.6796C131.561 45.3192 131.575 44.9951 131.527 44.7762C131.203 43.2867 130.058 42.4345 128.951 41.5801C127.549 40.4986 126.774 39.429 126.463 37.5677C126.313 36.6638 126.318 35.7125 125.696 35C125.505 34.7818 125.284 34.5897 125.137 34.3351C124.733 33.6374 125.336 32.5445 125.494 31.8418C125.941 29.853 125.724 27.6952 126.242 25.7392C126.712 23.9667 127.947 22.5209 128.933 21.0595C130.262 19.0923 131.484 17.0457 132.696 14.9948C133.221 14.108 133.659 13.2826 134.037 12.3168C134.331 11.5642 134.639 10.6739 135.314 10.2182C136.227 9.60097 137.307 9.49038 138.302 9.10049C138.851 8.88529 138.992 8.76276 139.27 8.2582C139.503 7.83659 139.513 7.31884 139.996 7.103C141.073 6.62248 141.68 7.95079 142.447 8.46289C143.214 8.97467 144.37 9.01111 144.833 9.9588C145.504 11.3331 143.963 11.2241 143.576 12.1541C143.199 13.0598 143.523 14.1621 143.692 15.0785C143.908 16.2446 143.374 16.9814 142.949 18.0443C142.325 19.6071 141.666 21.0374 141.36 22.7163C140.958 24.928 140.624 27.1679 140.004 29.3134C139.252 31.9163 138.49 34.2374 137.178 36.6021C136.559 37.7173 135.671 38.5217 135.024 39.6175C134.203 41.0105 133.526 42.8861 133.455 44.5451C133.407 45.6661 133.757 47.7203 132.248 48.0316C132.248 48.0316 132.248 48.0316 132.248 48.0318C131.215 48.2443 131.442 46.7898 131.532 45.6796Z" fill="url(#paint2_linear_811_4540)"/>
</g>
<path d="M158.968 23.32H155.896V24.392H158.968V23.32ZM155.896 26.584H158.968V25.416H155.896V26.584ZM160.36 27.672H155.896V36.264H154.424V22.216H160.36V27.672ZM159.976 31.304H161.88V29.784H159.976V31.304ZM165.192 32.536H163.208V35.976H161.88V32.536H159.944C159.816 33.608 159.304 35.24 157.848 36.216C157.64 35.944 157.192 35.544 156.888 35.336C158.072 34.616 158.52 33.416 158.648 32.536H156.824V31.304H158.696V29.784H157.112V28.6H164.872V29.784H163.208V31.304H165.192V32.536ZM163.016 26.616H166.184V25.416H163.016V26.616ZM166.184 23.32H163.016V24.392H166.184V23.32ZM167.656 22.216V34.44C167.656 35.256 167.496 35.688 166.968 35.944C166.456 36.184 165.656 36.232 164.456 36.216C164.408 35.816 164.2 35.144 163.976 34.744C164.792 34.76 165.608 34.76 165.864 34.76C166.104 34.744 166.184 34.664 166.184 34.424V27.704H161.592V22.216H167.656ZM177.992 24.424V23.368H175.848V24.424H177.992ZM181.56 25.528H179.4V27.064H181.56V25.528ZM175.848 25.528V27.064H177.992V25.528H175.848ZM172.424 25.528V27.064H174.472V25.528H172.424ZM174.472 24.424V23.368H170.104V22.168H183.832V23.368H179.4V24.424H183.032V28.184H171.032V24.424H174.472ZM182.216 30.216H171.816V29.048H182.216V30.216ZM173.208 32.584L174.584 33.064C173.656 34.2 172.184 35.288 170.904 35.96C170.648 35.72 170.104 35.208 169.784 34.984C171.08 34.408 172.424 33.512 173.208 32.584ZM179.176 33.4L180.264 32.632C181.528 33.304 183.16 34.328 184.024 35.064L182.856 35.928C182.088 35.208 180.456 34.12 179.176 33.4ZM169.896 31.112H184.136V32.312H177.72V36.28H176.248V32.312H169.896V31.112ZM189.08 30.776L190.664 30.104L191.016 31.416C189.336 32.216 187.544 33.048 186.152 33.672L185.56 32.184C186.136 31.976 186.872 31.688 187.688 31.352V26.744H185.864V25.336H187.688V21.784H189.08V25.336H190.696V26.744H189.08V30.776ZM194.44 34.6H197.944C198.824 34.6 198.984 34.2 199.112 32.456C199.448 32.68 200.024 32.92 200.424 33C200.216 35.208 199.768 35.928 198.04 35.928H194.36C192.392 35.928 191.832 35.432 191.832 33.512V28.888L190.728 29.368L190.168 28.04L191.832 27.336V23.096H193.24V26.744L195.032 25.992V21.592H196.424V25.4L198.568 24.488L199.672 24.856L199.608 25.096C199.48 27.32 199.24 30.248 198.84 32.072L197.624 31.736C197.864 30.36 198.04 28.136 198.12 26.184L196.424 26.92V32.664H195.032V27.512L193.24 28.28V33.528C193.24 34.424 193.416 34.6 194.44 34.6ZM208.168 30.776V31.528H209.72V30.776H208.168ZM207.304 32.232V30.072H210.616V32.232H207.304ZM206.456 29.496V32.824H211.464V29.496H206.456ZM205.304 33.704V28.632H212.68V33.704H205.304ZM207.032 24.872V25.736H210.888V24.872H207.032ZM209.576 27.176H213.672V28.04H204.36V27.176H208.312V26.552H205.816V24.056H212.152V26.552H209.576V27.176ZM203.72 34.424H214.28V23.416H203.72V34.424ZM202.328 22.168H215.72V36.248H214.28V35.656H203.72V36.248H202.328V22.168Z" fill="#FEFBF3"/>
<path d="M242.707 28.7071C243.098 28.3166 243.098 27.6834 242.707 27.2929L236.343 20.9289C235.953 20.5384 235.319 20.5384 234.929 20.9289C234.538 21.3195 234.538 21.9526 234.929 22.3431L240.586 28L234.929 33.6569C234.538 34.0474 234.538 34.6805 234.929 35.0711C235.319 35.4616 235.953 35.4616 236.343 35.0711L242.707 28.7071ZM227 29H242V27H227V29Z" fill="#FEFBF3"/>
<defs>
<filter id="filter0_bdi_811_4540" x="-9.5" y="-17.5" width="383.978" height="91" filterUnits="userSpaceOnUse" color-interpolation-filters="sRGB">
<feFlood flood-opacity="0" result="BackgroundImageFix"/>
<feGaussianBlur in="BackgroundImageFix" stdDeviation="10"/>
<feComposite in2="SourceAlpha" operator="in" result="effect1_backgroundBlur_811_4540"/>
<feColorMatrix in="SourceAlpha" type="matrix" values="0 0 0 0 0 0 0 0 0 0 0 0 0 0 0 0 0 0 127 0" result="hardAlpha"/>
<feOffset dx="-4" dy="4"/>
<feGaussianBlur stdDeviation="3"/>
<feComposite in2="hardAlpha" operator="out"/>
<feColorMatrix type="matrix" values="0 0 0 0 0.0527083 0 0 0 0 0.145283 0 0 0 0 0.383333 0 0 0 1 0"/>
<feBlend mode="normal" in2="effect1_backgroundBlur_811_4540" result="effect2_dropShadow_811_4540"/>
<feBlend mode="normal" in="SourceGraphic" in2="effect2_dropShadow_811_4540" result="shape"/>
<feColorMatrix in="SourceAlpha" type="matrix" values="0 0 0 0 0 0 0 0 0 0 0 0 0 0 0 0 0 0 127 0" result="hardAlpha"/>
<feOffset dx="-3" dy="4"/>
<feGaussianBlur stdDeviation="3"/>
<feComposite in2="hardAlpha" operator="arithmetic" k2="-1" k3="1"/>
<feColorMatrix type="matrix" values="0 0 0 0 1 0 0 0 0 1 0 0 0 0 1 0 0 0 0.4 0"/>
<feBlend mode="normal" in2="shape" result="effect3_innerShadow_811_4540"/>
</filter>
<filter id="filter1_i_811_4540" x="125" y="7" width="20" height="45.0527" filterUnits="userSpaceOnUse" color-interpolation-filters="sRGB">
<feFlood flood-opacity="0" result="BackgroundImageFix"/>
<feBlend mode="normal" in="SourceGraphic" in2="BackgroundImageFix" result="shape"/>
<feColorMatrix in="SourceAlpha" type="matrix" values="0 0 0 0 0 0 0 0 0 0 0 0 0 0 0 0 0 0 127 0" result="hardAlpha"/>
<feOffset dy="4"/>
<feGaussianBlur stdDeviation="2"/>
<feComposite in2="hardAlpha" operator="arithmetic" k2="-1" k3="1"/>
<feColorMatrix type="matrix" values="0 0 0 0 0 0 0 0 0 0 0 0 0 0 0 0 0 0 0.25 0"/>
<feBlend mode="normal" in2="shape" result="effect1_innerShadow_811_4540"/>
</filter>
<linearGradient id="paint0_linear_811_4540" x1="182.408" y1="3" x2="182.408" y2="53" gradientUnits="userSpaceOnUse">
<stop stop-color="#FEFBF3" stop-opacity="0.8"/>
<stop offset="1" stop-color="#FEFBF3" stop-opacity="0"/>
</linearGradient>
<linearGradient id="paint1_linear_811_4540" x1="182.408" y1="3" x2="182.408" y2="53" gradientUnits="userSpaceOnUse">
<stop stop-color="#FEFBF3" stop-opacity="0.2"/>
<stop offset="1" stop-color="#FEFBF3" stop-opacity="0.9"/>
<stop offset="1" stop-color="#FEFBF3" stop-opacity="0"/>
</linearGradient>
<linearGradient id="paint2_linear_811_4540" x1="135" y1="7" x2="135" y2="48.0526" gradientUnits="userSpaceOnUse">
<stop stop-color="#0D2562"/>
<stop offset="1" stop-color="#0D2562" stop-opacity="0.2"/>
</linearGradient>
</defs>
</svg>
